 http://bayimg.com/JaGGGAaec


 
http://www.imdb.com/title/tt2301900/


[b]Plot:After foiling a plot to blow up an American arms plant, Danny Coogan and his girlfriend, Beth, quickly find that their troubles have just begun...
 


Director: 
Charles Band

 Writers: 
Charles Band (story), Shane Bitterling
 
Stars:
 Paul Thomas Arnold, Oto Brezina and Kip Canyon

Genres:
 Fantasy | Horror | Sci-Fi 


Country:
USA 

Language:
English [/b]


Format                                   : AVI
Format/Info                              : Audio Video Interleave
File size                                : 699 MiB
Duration                                 : 1h 26mn
Overall bit rate mode                    : Variable
Overall bit rate                         : 1 135 Kbps
Writing application                      : Nandub v1.0rc2
Writing library                          : Nandub build 1852/release

Video
ID                                       : 0
Format                                   : MPEG-4 Visual
Format profile                           : Advanced Simple@L5
Format settings, BVOP                    : 2
Format settings, QPel                    : No
Format settings, GMC                     : No warppoints
Format settings, Matrix                  : Default (H.263)
Codec ID                                 : XVID
Codec ID/Hint                            : XviD
Duration                                 : 1h 26mn
Bit rate                                 : 994 Kbps
Width                                    : 608 pixels
Height                                   : 336 pixels
Display aspect ratio                     : 16:9
Frame rate                               : 23.976 fps
Color space                              : YUV
Chroma subsampling                       : 4:2:0
Bit depth                                : 8 bits
Scan type                                : Progressive
Compression mode                         : Lossy
Bits/(Pixel*Frame)                       : 0.203
Stream size                              : 613 MiB (88%)
Writing library                          : XviD 1.2.1 (UTC 2008-12-04)

Audio
ID                                       : 1
Format                                   : MPEG Audio
Format version                           : Version 1
Format profile                           : Layer 3
Mode                                     : Joint stereo
Mode extension                           : MS Stereo
Codec ID                                 : 55
Codec ID/Hint                            : MP3
Duration                                 : 1h 26mn
Bit rate mode                            : Variable
Bit rate                                 : 128 Kbps
Channel(s)                               : 2 channels
Sampling rate                            : 48.0 KHz
Compression mode                         : Lossy
Stream size                              : 78.9 MiB (11%)
Alignment                                : Aligned on interleaves
Interleave, duration                     : 24 ms (0.58 video frame)
Interleave, preload duration             : 386 ms
Writing library                          : LAME3.90.
Encoding settings                        : -m j -V 4 -q 2 -lowpass 17.6 --abr 128

 
http://bayimg.com/JAGgCAAEc
 
http://bayimg.com/JAGGeaAeC
 
http://bayimg.com/jAgGFAaEC